<?xml version="1.0" standalone="no"?>
<!DOCTYPE svg PUBLIC "-//W3C//DTD SVG 20010904//EN"
 "http://www.w3.org/TR/2001/REC-SVG-20010904/DTD/svg10.dtd">
<svg version="1.0" xmlns="http://www.w3.org/2000/svg"
 width="112.000000pt" height="131.000000pt" viewBox="0 0 112.000000 131.000000"
 preserveAspectRatio="xMidYMid meet">

<g transform="translate(0.000000,131.000000) scale(0.100000,-0.100000)"
fill="#000000" stroke="none">
<path d="M144 1186 l-34 -34 0 -178 0 -179 25 53 c13 28 28 52 33 52 9 0 20
-31 47 -135 15 -56 75 -155 94 -155 5 0 11 15 15 33 9 43 61 120 127 185 29
29 125 101 213 160 155 102 247 176 267 214 9 17 -8 18 -372 18 l-381 0 -34
-34z"/>
</g>
</svg>
